<?xml version="1.0" standalone="no"?>
<!DOCTYPE svg PUBLIC "-//W3C//DTD SVG 20010904//EN"
 "http://www.w3.org/TR/2001/REC-SVG-20010904/DTD/svg10.dtd">
<svg version="1.0" xmlns="http://www.w3.org/2000/svg"
 width="509.000000pt" height="339.000000pt" viewBox="0 0 509.000000 339.000000"
 preserveAspectRatio="xMidYMid meet">

<g transform="translate(0.000000,339.000000) scale(0.100000,-0.100000)"
fill="#000000" stroke="none">
<path d="M0 3339 c0 -55 9 -57 34 -5 22 46 20 56 -9 56 -23 0 -25 -3 -25 -51z"/>
<path d="M71 3370 c14 -31 19 -36 19 -24 0 6 -7 19 -16 30 -14 18 -14 18 -3
-6z"/>
<path d="M180 3370 c0 -11 7 -60 16 -110 11 -67 12 -94 4 -107 -10 -16 -10
-16 -5 3 3 11 -2 58 -10 105 -20 104 -25 122 -33 114 -15 -14 -28 -128 -21
-173 4 -26 8 -60 8 -77 0 -66 -19 15 -21 90 -1 42 -7 83 -15 97 -11 17 -13 18
-7 3 8 -26 8 -23 -5 -141 -6 -55 -9 -109 -5 -120 3 -11 2 -15 -3 -8 -4 5 -25
23 -45 38 l-38 28 0 -1556 0 -1556 2545 0 2545 0 0 329 c0 181 -3 336 -6 345
-8 21 -50 21 -58 0 -5 -14 -8 -14 -21 0 -8 8 -41 18 -72 21 -32 4 -66 9 -75
11 -10 3 -18 2 -18 -3 0 -4 -23 -8 -50 -9 -49 -1 -67 10 -32 19 9 3 2 5 -15 6
-18 0 -33 -3 -33 -9 0 -5 -19 -10 -42 -10 -41 1 -42 1 -19 14 24 13 24 13 -15
18 -21 3 -40 1 -42 -4 -5 -11 -52 -11 -52 0 0 17 13 22 27 11 10 -9 13 -8 13
1 0 17 243 7 345 -14 55 -11 66 -12 53 -2 -24 17 -23 25 2 19 11 -3 20 -10 20
-15 0 -6 7 -8 15 -4 8 3 15 2 15 -2 0 -4 13 -9 30 -10 27 -2 30 1 30 27 0 33
-13 45 -50 46 -19 0 -24 5 -21 20 3 19 2 19 -17 2 -15 -14 -21 -15 -24 -5 -3
9 -24 12 -75 10 -44 -2 -73 0 -78 7 -3 7 -3 11 2 10 44 -8 51 14 9 32 -14 5
27 8 117 6 125 -2 137 0 137 16 0 11 -8 17 -25 17 -32 0 -32 13 0 30 l25 13 0
1224 0 1223 -316 0 -317 0 6 -292 c4 -161 10 -345 15 -408 9 -136 10 -755 0
-765 -3 -3 -21 -9 -38 -11 -24 -4 -38 0 -55 16 -19 18 -27 20 -44 11 -23 -13
-28 -37 -9 -43 7 -3 -4 -15 -24 -29 -21 -13 -37 -28 -37 -34 1 -5 1 -21 0 -35
-2 -24 -2 -24 -16 -6 -8 10 -12 24 -8 30 3 6 0 6 -7 -1 -11 -10 -20 -5 -44 22
-28 32 -37 35 -91 38 -72 4 -118 -16 -88 -39 14 -10 16 -15 6 -25 -11 -11 -13
-9 -14 7 0 10 -3 13 -6 7 -7 -20 -23 -16 -49 12 -31 34 -60 33 -67 -2 -3 -16
-1 -29 4 -31 5 -2 9 -10 9 -18 0 -9 5 -12 10 -9 15 9 30 -4 23 -21 -3 -8 -11
-13 -19 -10 -30 11 -38 -25 -40 -182 -2 -87 -3 -195 -4 -242 -2 -103 -14 -128
-64 -128 -19 0 -50 -5 -69 -11 -19 -7 -39 -10 -43 -9 -5 2 -11 -1 -14 -7 -3
-5 10 -10 28 -10 17 0 32 4 32 10 0 5 5 2 11 -7 5 -10 19 -18 29 -18 13 0 18
-5 14 -15 -6 -14 1 -18 37 -18 9 0 16 -5 16 -12 0 -7 -10 -10 -24 -7 -17 3
-23 0 -23 -13 0 -14 7 -16 34 -13 19 2 32 0 30 -4 -3 -4 6 -8 20 -8 14 0 28
-5 31 -10 4 -6 16 -5 33 4 22 12 28 12 37 0 8 -12 14 -12 37 0 18 10 28 11 31
3 2 -6 21 -12 43 -13 21 -1 47 -5 56 -9 10 -4 36 -5 58 -3 42 4 49 -2 26 -22
-8 -6 -13 -17 -10 -24 3 -8 -4 -16 -15 -19 -18 -4 -25 2 -23 23 0 3 -10 10
-24 17 -14 7 -24 7 -24 1 0 -13 -113 -7 -123 6 -5 6 -6 0 -2 -14 6 -24 5 -24
-9 -6 -9 11 -16 15 -16 9 0 -7 -14 -9 -35 -6 -20 3 -44 1 -53 -3 -9 -4 -21 -6
-26 -5 -5 1 -4 -4 2 -12 9 -11 8 -14 -3 -14 -8 0 -15 7 -15 14 0 8 -8 13 -17
11 -10 -1 -24 1 -32 6 -9 6 -12 5 -7 -2 3 -5 2 -12 -3 -14 -5 -1 -12 -20 -16
-41 -6 -32 -5 -37 12 -37 10 0 25 6 32 13 10 8 12 8 7 0 -3 -6 -2 -14 4 -18 5
-3 10 -1 10 4 0 6 4 11 10 11 5 0 7 -6 4 -14 -7 -19 -41 -27 -68 -16 -14 5
-28 3 -39 -5 -10 -7 -39 -11 -70 -9 -28 1 -110 4 -182 5 -71 2 -152 6 -180 9
l-50 5 40 14 c70 24 158 72 210 114 76 63 124 110 119 118 -2 4 12 34 31 67
19 33 35 63 35 67 0 3 11 21 24 38 46 61 75 218 42 230 -10 4 -16 -5 -22 -31
-10 -52 -11 -54 -23 -85 -16 -40 -18 -33 -11 26 32 245 -65 524 -246 702 -49
49 -75 70 -106 86 -22 11 -22 11 3 -17 31 -35 59 -75 59 -86 0 -16 -19 -8 -24
10 -6 19 -22 35 -143 151 -71 67 -80 87 -30 66 51 -21 131 -29 156 -16 46 25
17 94 -44 104 -11 2 -30 8 -42 15 -12 7 -29 12 -38 12 -9 0 -34 9 -56 21 l-41
20 44 22 c36 19 43 27 43 52 0 29 -2 30 -45 31 -82 1 -184 16 -233 35 -38 14
-55 15 -78 7 -16 -6 -38 -8 -49 -5 -11 3 -20 1 -20 -4 0 -5 -5 -9 -11 -9 -8 0
-7 5 1 15 10 13 10 19 -5 35 -27 30 -44 90 -33 115 8 17 4 34 -17 75 -14 28
-22 49 -16 46 16 -10 24 39 11 63 -6 12 -8 30 -5 41 3 11 -3 41 -15 67 -15 34
-21 69 -22 123 0 41 -4 80 -8 85 -9 11 -10 14 -10 55 l0 30 -195 0 -195 0 -6
-26 c-4 -15 -4 -77 -1 -138 3 -61 3 -123 0 -138 l-5 -27 -31 29 c-17 16 -33
27 -35 25 -13 -13 95 -138 111 -128 5 3 7 2 4 -4 -7 -11 86 -106 96 -98 4 3 5
3 3 0 -8 -13 101 -128 114 -120 4 3 10 -5 13 -16 4 -15 11 -20 22 -15 9 3 13
2 10 -4 -3 -6 -1 -10 4 -10 6 0 11 -6 11 -12 0 -17 66 -61 79 -53 6 3 11 1 11
-4 0 -6 3 -10 8 -10 4 1 16 1 27 0 19 -2 19 -2 2 -12 -10 -6 -23 -8 -30 -6 -7
2 -22 0 -34 -4 -18 -6 -25 -4 -33 11 -6 11 -17 20 -24 20 -7 0 -34 18 -60 41
-33 29 -53 40 -67 36 -11 -3 -22 0 -23 6 -2 7 -9 32 -16 56 -8 29 -14 40 -20
31 -6 -9 -9 -8 -14 7 -5 15 -13 19 -36 15 -19 -3 -30 0 -30 8 0 7 -8 9 -19 5
-16 -5 -20 0 -23 22 -2 16 -8 27 -15 25 -7 -1 -13 4 -13 10 0 9 -4 8 -10 -2
-7 -11 -10 -11 -10 -2 0 7 -5 10 -10 7 -5 -3 -10 0 -10 7 0 11 -2 10 -9 0 -6
-10 -10 -8 -14 8 -3 12 -10 19 -16 15 -7 -4 -11 4 -11 19 0 16 -5 25 -12 24
-8 -2 -12 6 -10 20 2 12 -2 22 -8 22 -6 0 -10 8 -8 18 2 10 -7 24 -22 34 -14
10 -20 18 -13 18 11 0 -22 78 -39 90 -3 3 -14 24 -23 48 -10 23 -21 42 -27 42
-5 0 -6 5 -3 10 4 6 2 16 -3 23 -6 7 -12 21 -14 32 -7 45 11 44 -858 45 -536
0 -820 -4 -810 -10 8 -5 12 -10 9 -10 -3 0 -3 -20 1 -45 5 -34 4 -42 -5 -35
-7 5 -15 7 -18 4 -4 -4 -11 5 -16 20 -13 32 -21 34 -15 4 3 -17 0 -15 -10 7
-8 17 -13 38 -10 48 5 15 -2 17 -50 17 -49 0 -56 -2 -56 -20z m1156 -239 c-11
-119 -27 -155 -47 -104 -16 43 -8 122 15 149 29 32 39 20 32 -45z m-1110 -65
c3 -22 17 -71 30 -109 13 -39 22 -72 20 -74 -2 -3 -12 20 -21 49 -10 29 -21
58 -25 63 -5 6 -8 13 -8 18 0 10 -12 76 -18 102 -4 16 -3 17 5 5 5 -8 13 -32
17 -54z m535 4 c1 -16 3 -34 4 -40 1 -5 3 -12 4 -15 2 -10 -4 -20 -11 -17 -5
1 -8 -3 -8 -9 0 -5 -5 -7 -11 -3 -9 5 -10 -1 -5 -20 4 -17 3 -25 -3 -22 -5 3
-12 -12 -16 -34 -4 -22 -10 -42 -15 -45 -4 -3 -11 -26 -15 -52 -5 -33 -9 -42
-16 -32 -7 12 -9 12 -10 -1 -1 -8 -1 -20 0 -25 0 -6 -9 -15 -22 -21 -12 -5
-21 -15 -20 -22 2 -7 -4 -12 -12 -12 -9 0 -15 -10 -15 -26 0 -15 -4 -23 -11
-19 -13 9 -38 -25 -32 -42 3 -7 0 -13 -6 -13 -6 0 -11 -9 -11 -19 0 -17 -18
-31 -41 -31 -26 0 12 91 70 169 22 30 38 58 34 64 -3 6 -1 7 5 3 6 -3 16 7 24
24 7 16 17 30 21 30 5 0 5 5 2 10 -3 6 -1 10 4 10 6 0 11 9 11 20 0 12 -13 25
-35 36 -19 9 -35 20 -35 24 0 4 -11 6 -25 5 -14 -2 -23 2 -22 8 1 7 -4 11 -10
10 -7 -2 -13 2 -13 7 0 6 6 10 13 11 6 1 1 5 -13 9 -16 5 -19 8 -8 9 9 1 23
10 31 22 14 20 16 20 41 4 14 -9 31 -15 38 -12 7 2 22 -3 32 -12 11 -9 16 -11
13 -5 -4 7 0 15 9 18 8 3 12 2 9 -4 -3 -6 -4 -10 -1 -10 3 0 15 23 27 50 24
56 48 66 50 20z m-601 -35 c10 6 25 -34 16 -42 -3 -4 -6 1 -6 10 0 10 -4 17
-10 17 -5 0 -6 -8 -3 -17 6 -14 3 -14 -19 2 -13 11 -25 25 -25 32 0 17 14 17
20 1 3 -8 6 -4 7 7 2 17 3 18 7 2 2 -9 8 -15 13 -12z m1135 -65 c3 -5 2 -10
-4 -10 -5 0 -13 5 -16 10 -3 6 -2 10 4 10 5 0 13 -4 16 -10z m-8 -56 c-3 -3
-12 -4 -19 -1 -8 3 -5 6 6 6 11 1 17 -2 13 -5z m524 -91 l34 -36 -37 28 c-21
15 -38 31 -38 36 0 14 4 11 41 -28z m126 -106 c4 -7 -12 3 -35 21 -23 19 -45
39 -49 45 -4 7 12 -3 35 -21 23 -19 45 -39 49 -45z m860 -83 c-3 -3 -12 -4
-19 -1 -8 3 -5 6 6 6 11 1 17 -2 13 -5z m-772 -71 c28 -9 62 -25 77 -36 26
-19 26 -21 12 -48 -7 -15 -14 -35 -14 -43 0 -8 -3 -16 -7 -18 -28 -12 -62
-131 -42 -144 5 -3 9 3 9 13 1 16 2 16 13 3 17 -21 44 -24 68 -7 20 15 20 15
2 33 -24 24 -24 49 1 49 11 0 21 6 24 14 3 9 0 11 -9 6 -8 -5 -11 -4 -6 0 11
13 48 13 44 1 -7 -20 18 -32 62 -29 47 2 81 -10 81 -30 0 -7 11 -12 24 -12 13
0 22 4 19 8 -4 7 21 4 70 -10 9 -2 17 1 17 7 0 7 6 7 22 -1 l22 -12 -18 29
-17 29 23 -27 c30 -35 68 -96 68 -110 0 -7 15 -25 33 -40 17 -16 26 -26 19
-23 -21 11 -63 -35 -56 -59 6 -18 5 -19 -9 -8 -10 9 -17 10 -22 2 -3 -5 0 -10
7 -10 7 0 1 -8 -14 -18 -18 -12 -49 -60 -88 -136 -32 -65 -64 -123 -69 -130
-12 -14 -28 -78 -35 -140 l-5 -48 244 6 244 5 33 37 c64 69 174 52 197 -33 7
-24 7 -41 1 -47 -7 -7 -10 -6 -10 1 0 13 -30 22 -97 29 -37 4 -53 2 -53 -6 0
-7 -8 -9 -20 -5 -18 6 -25 -3 -21 -27 0 -5 -4 -8 -10 -8 -5 0 -7 -5 -4 -10 12
-20 -60 -39 -146 -38 -46 1 -135 -3 -197 -7 -99 -7 -112 -6 -107 8 5 12 -5 16
-52 20 -68 6 -792 -1 -843 -9 -151 -21 -196 -23 -360 -10 -36 3 -78 6 -95 6
-48 1 -8 20 42 20 23 0 54 5 68 12 l26 12 -23 13 c-20 11 -13 12 58 13 64 0
83 -3 88 -15 3 -8 10 -15 15 -15 6 0 7 8 4 18 -6 16 -6 16 11 -1 17 -16 41
-17 360 -13 377 6 561 15 530 26 -11 4 -25 15 -33 23 -7 9 -19 13 -27 10 -13
-5 -19 9 -14 32 1 6 3 19 5 30 1 11 5 27 8 35 14 41 19 57 23 77 2 12 13 37
23 55 10 18 31 69 47 113 15 44 32 83 37 86 5 4 6 12 3 18 -4 6 -2 11 3 11 6
0 11 6 11 14 0 8 10 16 23 18 15 2 21 9 20 22 -1 11 6 25 14 31 14 10 13 13
-7 18 -31 8 -42 0 -34 -25 4 -14 2 -18 -5 -14 -6 4 -11 3 -11 -2 0 -5 -18 -9
-40 -10 -23 -1 -40 3 -40 9 0 6 -7 8 -16 5 -8 -3 -12 -2 -9 3 3 5 0 13 -6 16
-5 4 -8 14 -5 22 3 8 1 11 -4 8 -5 -3 -12 6 -16 20 -3 14 -10 25 -14 25 -5 0
-16 3 -25 6 -9 4 -15 2 -13 -2 2 -5 -4 -17 -12 -26 -11 -12 -21 -13 -40 -6
-13 5 -28 14 -32 21 -9 15 -16 7 -20 -23 -2 -14 -6 -29 -10 -35 -3 -5 -16 -46
-27 -90 -12 -44 -28 -102 -36 -130 -7 -27 -19 -97 -25 -155 -6 -58 -16 -126
-22 -152 -9 -42 -13 -48 -35 -48 -23 0 -25 3 -20 29 14 70 19 133 13 174 -7
42 -8 44 -60 60 -29 9 -63 17 -77 17 -59 1 -121 -8 -132 -19 -18 -18 -74 -13
-139 15 -44 18 -72 24 -96 20 -21 -3 -46 1 -63 9 -40 21 -48 19 -108 -20 -29
-19 -59 -35 -67 -35 -8 0 -14 -2 -14 -4 0 -2 -3 -12 -7 -22 -4 -11 -3 -15 5
-10 6 3 13 2 17 -4 3 -5 -5 -14 -19 -20 -14 -5 -26 -14 -26 -20 0 -6 -11 -36
-25 -66 -14 -31 -23 -60 -20 -65 4 -5 2 -9 -3 -9 -5 0 -12 -9 -15 -20 -3 -14
-14 -20 -31 -20 -26 0 -34 17 -18 35 15 17 33 67 22 60 -9 -6 -7 3 21 70 4 11
9 29 11 40 2 11 9 21 16 21 6 1 17 2 22 3 6 0 10 9 10 19 0 15 -2 15 -11 2 -8
-11 -9 -9 -4 10 4 14 14 32 22 40 13 13 14 12 8 -10 -5 -19 -4 -21 4 -10 6 8
11 23 11 33 0 9 4 17 9 17 5 0 12 -8 15 -17 3 -10 4 -6 2 10 -2 15 1 27 5 27
5 0 9 -8 10 -17 0 -10 7 5 16 32 8 28 18 55 23 60 4 6 10 26 14 45 3 19 9 46
12 60 3 14 7 63 10 110 5 89 20 190 29 199 3 2 27 -16 53 -42 26 -26 51 -47
56 -47 10 0 236 162 291 207 l39 33 156 -6 c97 -3 174 -12 205 -21z m1305
-396 c47 -33 95 -69 108 -80 23 -21 30 -71 12 -82 -6 -3 -7 1 -4 10 10 25 -5
63 -30 77 -31 17 -198 128 -211 141 -31 30 52 -14 125 -66z m-1160 8 c7 -9 8
-15 2 -15 -5 0 -12 7 -16 15 -3 8 -4 15 -2 15 2 0 9 -7 16 -15z m-1900 -49
c38 -90 70 -278 70 -410 0 -86 -2 -97 -13 -82 -11 16 -19 17 -43 9 -22 -8 -35
-7 -56 5 -16 9 -28 22 -28 30 0 27 -45 92 -65 93 -11 1 -24 2 -30 4 -5 1 -15
3 -22 3 -17 3 -32 59 -47 180 -11 92 -9 120 9 92 15 -24 32 -8 33 31 2 49 8
59 31 59 9 0 26 7 37 15 11 9 37 14 63 13 41 -2 44 -4 61 -42z m2442 -6 c22
-16 38 -30 34 -30 -9 0 -86 49 -86 55 0 10 11 4 52 -25z m-2092 2 c0 -15 -11
-21 -27 -15 -12 5 -12 7 -1 14 17 11 28 11 28 1z m-30 -47 c0 -8 9 -16 20 -16
11 -1 26 -2 33 -3 6 -1 18 2 24 7 9 7 15 2 22 -14 5 -16 5 -26 -3 -31 -8 -5
-8 -8 0 -8 11 0 34 -40 41 -70 11 -51 18 -164 13 -220 -6 -61 -7 -63 -18 -37
-11 25 -29 33 -68 28 -7 -1 -14 5 -17 13 -5 12 -13 13 -37 6 -24 -7 -38 -5
-57 7 -20 13 -26 14 -33 3 -12 -19 -30 -3 -30 27 0 25 0 25 28 7 17 -11 23
-12 15 -3 -15 19 -10 66 9 82 18 14 31 47 19 47 -5 0 -11 -5 -13 -11 -2 -6
-19 -11 -38 -12 l-35 -2 0 47 c0 25 -3 50 -7 54 -25 25 14 70 49 57 7 -3 15 2
18 11 3 9 7 23 10 31 2 8 16 15 30 15 16 0 25 -6 25 -15z m2228 -14 c-3 -17
16 -38 30 -34 11 3 23 -7 35 -27 10 -17 22 -28 27 -25 4 3 22 2 38 -1 31 -6
31 -6 14 -33 l-17 -26 29 22 c26 21 30 21 57 8 15 -9 34 -25 40 -36 11 -21 9
-21 -25 -15 -32 6 -36 5 -36 -14 l0 -21 -30 21 c-38 27 -191 168 -207 191 -12
16 -11 16 16 6 17 -6 29 -13 29 -16z m518 -7 c18 -14 18 -14 -6 -3 -31 14 -36
19 -24 19 6 0 19 -7 30 -16z m63 -109 c33 -56 47 -113 31 -128 -8 -8 -11 -8
-7 -1 7 12 -31 114 -42 114 -3 0 -7 11 -7 25 -2 33 0 32 25 -10z m-133 -30 c0
-5 2 -18 2 -29 2 -14 7 -17 25 -12 44 11 85 -73 56 -114 -8 -12 -9 -11 -5 5
11 40 -36 68 -56 35 -7 -11 -17 -20 -22 -20 -5 0 -6 3 -3 6 4 4 -2 19 -12 33
-14 19 -17 31 -10 44 7 12 6 17 -2 17 -7 0 -9 8 -4 23 4 12 7 31 6 42 l0 20
12 -20 c6 -11 12 -24 13 -30z m-131 -25 c-3 -5 -11 -10 -16 -10 -6 0 -7 5 -4
10 3 6 11 10 16 10 6 0 7 -4 4 -10z m10 -30 c5 -8 11 -7 21 0 18 15 66 -34 57
-58 -4 -10 -8 -12 -11 -4 -2 7 -10 12 -18 12 -9 0 -12 -4 -9 -10 3 -5 1 -10
-5 -10 -7 0 -10 -7 -6 -15 11 -29 -12 -15 -48 29 -39 49 -44 58 -21 50 8 -4
15 -1 15 5 0 14 17 14 25 1z m955 -12 c0 -5 -4 -7 -9 -3 -5 3 -12 1 -16 -5 -3
-5 -13 -10 -21 -10 -11 0 -10 4 4 18 17 18 42 19 42 0z m-2447 -245 c-13 -2
-33 -2 -45 0 -13 2 -3 4 22 4 25 0 35 -2 23 -4z m1394 -69 c2 -7 -7 -25 -20
-40 -21 -24 -33 -29 -76 -30 -42 -2 -56 3 -81 24 -17 15 -30 30 -30 35 0 4 31
5 68 2 53 -4 72 -2 81 8 13 17 53 17 58 1z m-2240 -10 c-3 -3 -12 -4 -19 -1
-8 3 -5 6 6 6 11 1 17 -2 13 -5z m1531 -61 c4 -55 71 -244 96 -273 13 -14 33
-41 47 -60 13 -19 36 -48 51 -65 15 -16 28 -33 28 -37 0 -4 7 -5 16 -1 12 4
15 2 12 -8 -6 -17 42 -62 95 -90 20 -11 37 -20 37 -22 0 -1 -48 -2 -107 -3
-127 -1 -183 -6 -183 -16 0 -5 -6 -8 -14 -8 -8 0 -16 -7 -18 -16 -3 -14 -6
-13 -25 4 -13 11 -23 24 -23 30 0 6 -5 14 -12 18 -8 5 -9 2 -5 -9 3 -10 3 -17
-1 -17 -8 0 -42 36 -38 42 1 1 -8 14 -21 27 -13 13 -23 19 -23 12 0 -20 -43
16 -47 39 -4 25 4 25 30 3 19 -18 19 -17 6 5 -8 12 -21 23 -29 24 -8 0 -19 2
-25 2 -24 4 -66 40 -61 53 3 8 2 12 -3 9 -15 -9 -34 23 -41 67 l-7 42 -7 -41
c-5 -22 -15 -50 -24 -61 -20 -25 -79 -36 -74 -14 2 10 -7 12 -33 9 -19 -2 -35
-3 -35 -1 0 2 19 12 43 23 41 20 74 64 56 76 -5 3 -9 10 -9 15 0 6 4 8 8 5 4
-2 13 4 20 15 9 14 9 19 1 19 -8 0 -9 4 0 13 6 8 8 17 4 20 -3 4 -1 7 6 7 7 0
9 5 6 10 -3 6 1 10 9 10 9 0 16 6 16 13 0 6 18 25 40 40 22 16 40 27 40 25 0
-2 -7 -28 -15 -58 -19 -73 -19 -101 0 -94 9 4 15 1 15 -7 0 -8 5 -6 13 5 14
19 97 30 97 14 0 -8 -17 -12 -35 -8 -5 1 -6 -2 -2 -7 5 -4 18 -9 30 -10 12 -1
36 -5 52 -9 26 -6 28 -5 18 8 -8 10 -12 56 -12 141 0 113 2 127 17 127 12 0
18 -10 20 -37z m-504 11 c11 -4 13 -11 7 -22 -4 -10 -13 -44 -20 -77 -22 -100
-67 -228 -95 -270 -32 -46 -19 -59 25 -26 16 12 35 19 41 14 7 -4 26 -6 43 -5
42 3 15 -12 -58 -31 -55 -15 -97 -13 -97 3 0 4 11 36 24 71 13 35 38 123 56
194 29 113 44 155 55 155 2 0 10 -3 19 -6z m-918 -326 c5 -81 15 -131 36 -175
11 -23 4 -58 -10 -49 -4 2 -21 32 -37 65 -17 34 -38 64 -48 67 -16 5 -16 7 -4
17 20 16 29 71 14 87 -9 10 -9 11 1 6 8 -5 13 0 14 13 0 12 1 27 2 34 1 13 18
29 24 22 2 -2 6 -41 8 -87z m1206 -110 c-5 -22 -32 -24 -32 -3 0 10 -11 15
-32 16 -18 0 -42 5 -53 10 -17 8 -15 9 9 5 15 -2 40 2 54 10 23 12 28 11 42
-4 9 -9 15 -25 12 -34z m-472 2 c0 -19 -30 -104 -52 -147 -6 -12 -14 -39 -18
-60 -8 -37 -8 -37 -9 13 -1 29 7 72 18 100 10 27 25 64 31 82 14 36 30 43 30
12z m520 -30 c0 -5 -2 -10 -4 -10 -3 0 -8 5 -11 10 -3 6 -1 10 4 10 6 0 11 -4
11 -10z m2154 -18 c3 -5 18 -7 33 -5 15 3 39 0 53 -6 21 -9 19 -10 -17 -5 -27
3 -43 1 -43 -6 0 -11 -42 -13 -77 -4 -37 10 -28 34 11 34 19 0 37 -4 40 -8z
m-329 -12 c-3 -5 0 -10 8 -10 8 0 18 -7 21 -16 3 -8 11 -12 17 -8 8 4 9 3 5
-5 -6 -9 -11 -9 -22 0 -11 9 -14 9 -14 0 0 -9 -5 -9 -21 -1 -17 9 -23 8 -34
-7 -11 -14 -16 -16 -26 -5 -8 7 -9 12 -2 12 6 0 13 9 16 21 3 12 10 19 14 16
5 -3 15 -2 23 4 19 11 23 11 15 -1z m530 -10 c3 -5 -1 -10 -9 -10 -9 0 -16 5
-16 10 0 6 4 10 9 10 6 0 13 -4 16 -10z m-701 -43 c-8 -21 -34 -22 -34 -2 0 8
6 14 13 13 6 -2 11 4 9 12 -3 11 0 12 8 4 6 -6 8 -18 4 -27z m829 14 c-4 -15
3 -21 34 -29 36 -9 37 -10 8 -11 -37 -1 -50 7 -59 37 -5 16 -3 22 7 22 10 0
13 -7 10 -19z m-749 0 c9 -13 -19 -32 -38 -25 -29 11 -17 26 26 33 4 0 9 -3
12 -8z m85 -52 c-8 -5 -18 -9 -22 -9 -5 0 -6 -4 -3 -9 3 -5 -15 -8 -41 -7 -38
1 -48 5 -51 20 -3 15 1 18 22 14 14 -3 26 -2 26 1 0 4 10 8 22 8 13 1 24 7 26
12 2 6 10 4 19 -5 14 -13 14 -17 2 -25z m986 30 c4 -5 15 -7 25 -4 10 3 21 1
25 -5 4 -7 -21 -10 -82 -9 -89 2 -107 5 -99 17 7 11 125 12 131 1z m-160 -9
c15 -6 9 -9 -25 -9 -34 0 -40 3 -25 9 11 5 22 9 25 9 3 0 14 -4 25 -9z m-775
-7 c0 -3 -7 -11 -15 -19 -13 -14 -15 -13 -15 4 0 10 7 19 15 19 8 0 15 -2 15
-4z m630 -49 c0 -2 -9 -4 -20 -4 -11 0 -20 4 -20 9 0 5 9 7 20 4 11 -3 20 -7
20 -9z m70 8 c0 -15 -11 -21 -27 -15 -12 5 -12 7 -1 14 17 11 28 11 28 1z
m-3770 -27 c0 -18 -4 -23 -16 -18 -13 5 -13 7 -2 14 9 6 6 9 -12 10 -23 0 -23
1 -5 9 31 13 35 12 35 -15z m1491 2 c-1 -12 -15 -9 -19 4 -3 6 1 10 8 8 6 -3
11 -8 11 -12z m129 4 c0 -13 -20 -18 -50 -12 l-25 5 25 7 c36 10 50 10 50 0z
m99 -2 c35 -12 51 -35 51 -73 0 -14 5 -28 10 -31 6 -3 10 -13 10 -21 0 -12 -2
-12 -14 -2 -8 7 -12 16 -9 21 2 4 -8 7 -22 7 -16 0 -24 4 -20 11 4 5 -1 19
-12 31 -10 11 -17 22 -15 24 9 15 -1 33 -20 37 -13 2 -16 5 -7 6 9 0 30 -4 48
-10z m1856 -29 c3 -5 -9 -9 -29 -8 -19 1 -33 5 -30 10 7 11 51 10 59 -2z
m-2965 -58 c0 -23 -26 -59 -35 -50 -8 8 16 68 27 68 5 0 8 -8 8 -18z m1460
-17 c-7 -8 -17 -12 -23 -8 -6 4 -3 9 9 14 27 11 28 11 14 -6z m60 5 c0 -5 -2
-10 -4 -10 -3 0 -8 5 -11 10 -3 6 -1 10 4 10 6 0 11 -4 11 -10z m-273 -16 c-3
-3 -12 -4 -19 -1 -8 3 -5 6 6 6 11 1 17 -2 13 -5z m83 -10 c0 -2 -14 -4 -31
-4 -16 0 -28 4 -25 9 5 8 56 3 56 -5z m37 -21 c2 -6 -7 -10 -21 -9 -18 1 -22
4 -14 14 12 14 30 12 35 -5z m-92 -2 c-11 -5 -36 -11 -55 -15 -32 -6 -33 -6
-13 6 12 7 37 14 55 15 25 1 28 0 13 -6z m1345 -1 c0 -5 -5 -10 -11 -10 -5 0
-7 5 -4 10 3 6 8 10 11 10 2 0 4 -4 4 -10z m-1533 -6 c-3 -3 -12 -4 -19 -1 -8
3 -5 6 6 6 11 1 17 -2 13 -5z m73 -4 c0 -5 -4 -10 -10 -10 -5 0 -10 5 -10 10
0 6 5 10 10 10 6 0 10 -4 10 -10z m2207 -26 c-3 -3 -12 -4 -19 -1 -8 3 -5 6 6
6 11 1 17 -2 13 -5z m-1893 -13 c3 -4 -6 -6 -19 -3 -14 2 -25 6 -25 8 0 8 39
4 44 -5z m696 -1 c0 -5 -4 -10 -10 -10 -5 0 -10 5 -10 10 0 6 5 10 10 10 6 0
10 -4 10 -10z m-2791 -54 c-1 -17 -2 -16 -9 6 -4 14 -11 32 -15 40 -3 7 1 4 9
-6 9 -11 16 -29 15 -40z m154 37 c-7 -2 -19 -2 -25 0 -7 3 -2 5 12 5 14 0 19
-2 13 -5z m-430 -30 c-5 -12 -3 -14 8 -9 8 4 5 0 -5 -8 -11 -9 -16 -16 -12
-16 4 0 -5 -17 -21 -37 -26 -36 -26 -37 -3 -17 17 15 31 19 45 14 18 -6 17 -8
-12 -23 -40 -21 -55 -42 -22 -32 21 7 22 6 10 -9 -9 -10 -10 -16 -2 -16 18 0
13 -17 -7 -22 -12 -3 -24 2 -31 14 -6 10 -16 16 -21 13 -14 -9 -12 9 2 23 9 9
9 12 1 12 -7 0 -15 -4 -18 -10 -3 -5 -12 -10 -20 -10 -16 0 -14 55 4 88 12 23
56 46 71 37 4 -3 13 2 20 10 16 20 21 19 13 -2z m488 -30 l34 -37 -37 30 c-20
16 -37 32 -37 37 -2 12 4 8 40 -30z m-397 1 c3 -8 2 -12 -4 -9 -6 3 -10 10
-10 16 0 14 7 11 14 -7z m2483 10 c-3 -3 -12 -4 -19 -1 -8 3 -5 6 6 6 11 1 17
-2 13 -5z m343 -3 c0 -6 -4 -12 -8 -15 -5 -3 -9 1 -9 9 0 8 4 15 9 15 4 0 8
-4 8 -9z m-2890 -15 c0 -2 -8 -10 -17 -17 -16 -13 -17 -12 -4 4 13 16 21 21
21 13z m3656 -24 c-17 -16 -18 -16 -5 5 7 12 15 20 18 17 3 -2 -3 -12 -13 -22z
m-3126 -37 c13 -14 21 -25 18 -25 -2 0 -15 11 -28 25 -13 14 -21 25 -18 25 2
0 15 -11 28 -25z m940 11 c0 -9 -7 -12 -20 -9 -11 3 -17 9 -14 14 8 14 34 10
34 -5z m105 4 c3 -5 1 -10 -4 -10 -6 0 -11 5 -11 10 0 6 2 10 4 10 3 0 8 -4
11 -10z m283 -15 c-3 -3 -9 2 -12 12 -6 14 -5 15 5 6 7 -7 10 -15 7 -18z m152
13 c0 -4 -4 -8 -9 -8 -6 0 -12 4 -15 8 -3 5 1 9 9 9 8 0 15 -4 15 -9z m148
-13 c-3 -3 -9 2 -12 12 -6 14 -5 15 5 6 7 -7 10 -15 7 -18z m576 13 c-3 -4
-11 -8 -19 -8 -8 0 -16 4 -19 8 -2 4 6 8 19 8 13 0 21 -4 19 -8z m-1084 -2 c0
-3 -4 -8 -10 -11 -5 -3 -10 -1 -10 4 0 6 5 11 10 11 6 0 10 -2 10 -4z m83 -11
c-3 -9 -8 -14 -10 -11 -3 3 -2 9 2 15 9 16 15 13 8 -4z m349 -17 c-8 -8 -9 -4
-5 13 4 13 8 18 11 10 2 -7 -1 -18 -6 -23z m-462 18 c0 -2 -7 -6 -15 -10 -8
-3 -15 -1 -15 4 0 6 7 10 15 10 8 0 15 -2 15 -4z m255 -15 c-3 -5 -1 -12 5
-16 5 -3 10 -1 10 5 0 6 4 9 9 6 5 -3 7 -15 4 -25 -5 -19 -5 -19 -24 0 -17 17
-18 39 -3 39 3 0 3 -4 -1 -9z m1842 3 c-3 -3 -12 -4 -19 -1 -8 3 -5 6 6 6 11
1 17 -2 13 -5z m-2082 -14 c3 -5 1 -10 -4 -10 -6 0 -11 5 -11 10 0 6 2 10 4
10 3 0 8 -4 11 -10z m982 4 c-3 -3 -12 -4 -19 -1 -8 3 -5 6 6 6 11 1 17 -2 13
-5z m-673 -36 c7 -5 5 -8 -6 -8 -21 0 -32 16 -22 32 6 9 9 8 12 -2 3 -8 10
-18 16 -22z m101 22 c-3 -6 4 -10 17 -10 18 0 20 -2 8 -9 -8 -6 -18 -7 -24 -4
-5 4 -6 1 -2 -6 5 -7 14 -10 22 -7 7 3 16 0 20 -7 4 -7 4 -9 -1 -5 -4 4 -14 3
-22 -3 -10 -9 -13 -8 -13 0 0 7 -4 10 -9 7 -13 -9 -20 31 -8 43 14 14 20 14
12 1z m-1472 -17 c-7 -2 -19 -2 -25 0 -7 3 -2 5 12 5 14 0 19 -2 13 -5z m1437
-5 c0 -4 -4 -8 -9 -8 -6 0 -12 4 -15 8 -3 5 1 9 9 9 8 0 15 -4 15 -9z m145 2
c3 -6 -1 -7 -9 -4 -18 7 -21 14 -7 14 6 0 13 -4 16 -10z m190 0 c3 -6 -1 -7
-9 -4 -18 7 -21 14 -7 14 6 0 13 -4 16 -10z m-2471 -65 c23 -34 16 -31 -25 11
-23 25 -27 33 -13 26 12 -6 29 -23 38 -37z m2137 27 c-7 -2 -18 1 -23 6 -8 8
-4 9 13 5 13 -4 18 -8 10 -11z m119 9 c0 -5 -7 -12 -16 -15 -14 -5 -15 -4 -4
9 14 17 20 19 20 6z m90 -11 c0 -5 -12 -10 -27 -9 l-28 1 25 8 c14 4 26 8 28
9 1 1 2 -3 2 -9z m50 0 c0 -5 -2 -10 -4 -10 -3 0 -8 5 -11 10 -3 6 -1 10 4 10
6 0 11 -4 11 -10z m-1621 -27 c22 -19 31 -36 31 -57 l0 -29 -23 21 c-13 12
-27 22 -31 22 -16 0 -45 42 -39 56 8 21 27 17 62 -13z m1671 21 c0 -8 -19 -13
-24 -6 -3 5 1 9 9 9 8 0 15 -2 15 -3z m68 -15 c-19 -12 -25 -11 -25 5 0 8 8
11 20 8 14 -4 16 -7 5 -13z m60 0 c3 -11 1 -11 -7 1 -7 10 -11 11 -11 3 0 -7
-4 -13 -8 -13 -5 0 -9 6 -9 14 0 18 30 14 35 -5z m-2408 4 c-8 -3 -34 -14 -57
-24 -24 -10 -43 -16 -43 -13 0 8 83 44 100 43 13 -1 13 -1 0 -6z m2990 -3 c0
-5 -5 -10 -11 -10 -5 0 -7 5 -4 10 3 6 8 10 11 10 2 0 4 -4 4 -10z m-1225 -20
c3 -5 1 -10 -4 -10 -6 0 -11 5 -11 10 0 6 2 10 4 10 3 0 8 -4 11 -10z m-1890
-10 c-3 -5 2 -21 11 -35 10 -15 12 -25 5 -25 -6 0 -11 -7 -11 -15 0 -8 -5 -15
-11 -15 -6 0 -9 7 -5 15 3 9 0 15 -8 15 -8 0 -16 7 -20 15 -3 8 0 14 7 12 6
-1 13 8 15 21 2 12 8 22 13 22 6 0 7 -4 4 -10z m2319 -5 c-4 -8 -8 -15 -10
-15 -2 0 -4 7 -4 15 0 8 4 15 10 15 5 0 7 -7 4 -15z m416 5 c0 -5 -5 -10 -11
-10 -5 0 -7 5 -4 10 3 6 8 10 11 10 2 0 4 -4 4 -10z m-615 -48 c-3 -3 -11 0
-18 7 -9 10 -8 11 6 5 10 -3 15 -9 12 -12z m185 14 c0 -2 -7 -7 -16 -10 -8 -3
-12 -2 -9 4 6 10 25 14 25 6z m30 -36 c0 -5 -7 -7 -15 -4 -8 4 -15 8 -15 10 0
2 7 4 15 4 8 0 15 -4 15 -10z m1115 -50 c-3 -5 -12 -10 -18 -10 -7 0 -6 4 3
10 19 12 23 12 15 0z m-1245 -20 c0 -5 -5 -10 -11 -10 -5 0 -7 5 -4 10 3 6 8
10 11 10 2 0 4 -4 4 -10z m1976 -5 c-11 -8 -27 -15 -35 -15 -10 1 -7 6 9 15
33 19 50 18 26 0z m-2464 -9 c7 4 8 2 4 -4 -8 -14 -36 -16 -36 -4 0 14 14 24
18 13 2 -6 9 -8 14 -5z m441 -3 c-7 -2 -19 -2 -25 0 -7 3 -2 5 12 5 14 0 19
-2 13 -5z"/>
<path d="M2162 2358 c-17 -17 -15 -33 3 -18 8 6 19 8 26 4 7 -4 10 -2 7 6 -6
19 -22 22 -36 8z"/>
<path d="M2367 2136 c-4 -9 0 -13 11 -11 9 2 22 4 27 4 6 1 3 6 -5 11 -20 13
-27 12 -33 -4z"/>
<path d="M2355 1950 c3 -6 -1 -10 -9 -10 -9 0 -16 -4 -16 -10 0 -5 5 -10 12
-10 13 0 2 -14 -13 -16 -5 -1 -13 -2 -18 -3 -5 0 -13 -11 -17 -23 -4 -13 -10
-25 -15 -28 -5 -3 -10 -16 -12 -29 -2 -12 -9 -26 -16 -30 -9 -6 -7 -10 8 -14
14 -3 21 0 21 8 0 7 6 16 13 19 10 5 10 7 0 12 -7 3 -13 10 -13 15 0 6 4 8 8
5 4 -2 14 -1 22 4 12 7 12 11 -1 26 -13 16 -12 16 8 6 26 -14 36 -15 29 -3 -3
4 3 24 13 44 15 30 16 37 4 41 -8 3 -11 1 -8 -4z"/>
<path d="M1010 1729 c0 -5 5 -7 10 -4 6 3 10 8 10 11 0 2 -4 4 -10 4 -5 0 -10
-5 -10 -11z"/>
<path d="M2280 1635 c-10 -12 -10 -15 4 -15 9 0 16 7 16 15 0 8 -2 15 -4 15
-2 0 -9 -7 -16 -15z"/>
<path d="M1260 1579 c0 -5 5 -7 10 -4 6 3 10 8 10 11 0 2 -4 4 -10 4 -5 0 -10
-5 -10 -11z"/>
<path d="M650 2019 c0 -5 5 -7 10 -4 6 3 10 8 10 11 0 2 -4 4 -10 4 -5 0 -10
-5 -10 -11z"/>
<path d="M531 1934 c0 -11 3 -14 6 -6 3 7 2 16 -1 19 -3 4 -6 -2 -5 -13z"/>
<path d="M611 1776 c-13 -13 -18 -26 -14 -29 5 -3 15 3 23 13 8 10 17 17 22
14 4 -3 8 -1 8 5 0 21 -18 19 -39 -3z"/>
<path d="M2173 1236 c0 -18 3 -24 9 -18 7 7 7 16 0 28 -8 14 -9 13 -9 -10z"/>
<path d="M2255 1211 c-3 -6 3 -9 14 -8 11 0 17 5 15 9 -7 11 -22 10 -29 -1z"/>
<path d="M2245 1090 c3 -5 8 -10 11 -10 2 0 4 5 4 10 0 6 -5 10 -11 10 -5 0
-7 -4 -4 -10z"/>
<path d="M2290 976 c0 -8 71 -48 76 -43 3 2 -13 14 -36 26 -22 11 -40 19 -40
17z"/>
<path d="M4022 3248 c6 -147 22 -217 41 -182 6 10 12 86 15 171 l4 153 -32 0
-33 0 5 -142z"/>
<path d="M55 3333 c-3 -10 -9 -58 -11 -108 -4 -69 -3 -86 6 -72 12 18 27 197
18 197 -3 0 -9 -8 -13 -17z"/>
<path d="M2164 3214 c3 -9 6 -18 6 -20 0 -2 12 -4 26 -4 l27 0 -26 20 c-30 24
-41 25 -33 4z"/>
<path d="M3210 3120 c-12 -8 -11 -10 7 -10 12 0 25 5 28 10 8 13 -15 13 -35 0z"/>
<path d="M4049 2938 c0 -7 -2 -23 -3 -36 -2 -12 2 -29 8 -37 9 -12 12 -6 14
29 1 24 -2 47 -8 51 -5 3 -10 0 -11 -7z"/>
<path d="M3685 2901 c-3 -5 -1 -12 5 -16 5 -3 10 1 10 9 0 18 -6 21 -15 7z"/>
<path d="M3606 2811 c-4 -5 -2 -12 3 -15 5 -4 12 -2 15 3 4 5 2 12 -3 15 -5 4
-12 2 -15 -3z"/>
<path d="M3625 2060 c20 -23 29 -21 19 4 -3 9 -13 16 -22 16 -13 0 -12 -3 3
-20z"/>
<path d="M3770 1613 c0 -10 -3 -29 -6 -43 -6 -24 -6 -25 9 -5 18 22 23 65 7
65 -5 0 -10 -8 -10 -17z"/>
<path d="M4884 839 c-5 -9 0 -11 41 -11 59 0 78 2 71 9 -10 11 -106 12 -112 2z"/>
<path d="M5032 843 c-6 -2 -10 -8 -7 -13 6 -10 55 0 55 11 0 10 -27 11 -48 2z"/>
<path d="M5040 810 c0 -5 10 -10 23 -10 18 0 19 2 7 10 -19 13 -30 13 -30 0z"/>
</g>
</svg>
